<svg xmlns="http://www.w3.org/2000/svg" viewBox="0 0 800 1200"><rect width="800" height="1200" fill="#f8f9fa"/><rect width="700" height="150" x="50" y="50" fill="#fff" stroke="#333" stroke-width="3"/><text x="400" y="100" fill="#333" font-family="Arial" font-size="24" font-weight="bold" text-anchor="middle">AVENTURAS ESPACIALES</text><text x="400" y="140" fill="#666" font-family="Arial" font-size="16" text-anchor="middle">Capítulo 1: El Despertar</text><rect width="700" height="300" x="50" y="220" fill="#e3f2fd" stroke="#333" stroke-width="3"/><circle cx="200" cy="350" r="50" fill="#1976d2"/><rect width="80" height="40" x="160" y="330" fill="#1976d2"/><text x="400" y="280" fill="#333" font-family="Arial" font-size="14" text-anchor="middle">El protagonista despierta en su nave espacial...</text><text x="400" y="480" fill="#666" font-family="Arial" font-size="12" text-anchor="middle">&quot;¿Dónde estoy? Esta no es mi habitación...&quot;</text><rect width="340" height="250" x="50" y="540" fill="#fff3e0" stroke="#333" stroke-width="3"/><rect width="100" height="60" x="70" y="560" fill="#ff9800"/><rect width="80" height="20" x="70" y="640" fill="#ff9800"/><text x="210" y="630" fill="#333" font-family="Arial" font-size="11" text-anchor="middle">Los controles de la nave brillan</text><text x="210" y="750" fill="#666" font-family="Arial" font-size="10" text-anchor="middle">&quot;Debo revisar los sistemas&quot;</text><rect width="340" height="250" x="410" y="540" fill="#f3e5f5" stroke="#333" stroke-width="3"/><circle cx="580" cy="620" r="30" fill="#9c27b0"/><circle cx="550" cy="650" r="20" fill="#9c27b0"/><circle cx="610" cy="650" r="20" fill="#9c27b0"/><text x="580" y="730" fill="#333" font-family="Arial" font-size="11" text-anchor="middle">Extrañas luces en el espacio</text><text x="580" y="750" fill="#666" font-family="Arial" font-size="10" text-anchor="middle">&quot;¿Qué es eso?&quot;</text><rect width="700" height="200" x="50" y="810" fill="#e8f5e8" stroke="#333" stroke-width="3"/><rect width="150" height="100" x="100" y="850" fill="#4caf50"/><rect width="200" height="60" x="300" y="870" fill="#4caf50"/><rect width="150" height="100" x="550" y="850" fill="#4caf50"/><text x="400" y="990" fill="#333" font-family="Arial" font-size="12" text-anchor="middle">&quot;La misión debe continuar... pero algo ha cambiado&quot;</text><text x="400" y="1150" fill="#999" font-family="Arial" font-size="14" text-anchor="middle">Página 1</text></svg>