<svg xmlns="http://www.w3.org/2000/svg" viewBox="0 0 800 1200"><rect width="800" height="1200" fill="#f8f9fa"/><text x="400" y="40" fill="#333" font-family="Arial" font-size="18" font-weight="bold" text-anchor="middle">El Misterio del Laboratorio</text><rect width="740" height="300" x="30" y="60" fill="#e3f2fd" stroke="#333" stroke-width="3"/><rect width="100" height="80" x="80" y="120" fill="#37474f" stroke="#333" stroke-width="2"/><circle cx="130" cy="140" r="15" fill="#4caf50"/><circle cx="130" cy="170" r="15" fill="#ff9800"/><rect width="80" height="30" x="90" y="190" fill="#000"/><text x="130" y="210" fill="#0f0" font-family="monospace" font-size="8" text-anchor="middle">ERROR 404</text><rect width="200" height="100" x="250" y="180" fill="#8d6e63"/><rect width="50" height="60" x="270" y="160" fill="#fff"/><rect width="60" height="40" x="330" y="170" fill="#fff"/><rect width="40" height="50" x="400" y="160" fill="#fff"/><circle cx="500" cy="200" r="30" fill="#ffdbcb"/><rect width="40" height="60" x="480" y="220" fill="#795548"/><circle cx="490" cy="190" r="2" fill="#333"/><circle cx="510" cy="190" r="2" fill="#333"/><path fill="none" stroke="#333" stroke-width="1" d="M 495 210 Q 500 215 505 210"/><circle cx="540" cy="180" r="20" fill="rgba(255,255,255,0.8)" stroke="#333" stroke-width="3"/><line x1="555" x2="570" y1="195" y2="210" stroke="#333" stroke-width="3"/><ellipse cx="600" cy="120" fill="#fff" stroke="#333" stroke-width="2" rx="80" ry="40"/><polygon fill="#fff" points="550 140 520 160 540 155"/><text x="600" y="115" fill="#333" font-family="Arial" font-size="11" text-anchor="middle">&quot;Algo no cuadra aquí.</text><text x="600" y="130" fill="#333" font-family="Arial" font-size="11" text-anchor="middle">Demasiado ordenado...&quot;</text><text x="400" y="340" fill="#333" font-family="Arial" font-size="14" text-anchor="middle">El laboratorio del Dr. Elena Voss parece intacto, pero hay señales sutiles...</text><rect width="340" height="250" x="50" y="380" fill="#fff8e1" stroke="#333" stroke-width="3"/><rect width="80" height="60" x="80" y="420" fill="#fff" transform="rotate(-15 120 450)"/><text x="120" y="440" fill="#333" font-family="Arial" font-size="8" text-anchor="middle" transform="rotate(-15 120 440)">PROYECTO</text><text x="120" y="455" fill="#333" font-family="Arial" font-size="8" text-anchor="middle" transform="rotate(-15 120 455)">HELIX</text><path fill="#8d6e63" d="M 70 420 Q 65 415 70 410 Q 75 415 80 420"/><path fill="#8d6e63" d="M 150 470 Q 155 475 160 470 Q 155 465 150 470"/><rect width="120" height="40" x="200" y="500" fill="#e0e0e0"/><text x="260" y="515" fill="#333" font-family="monospace" font-size="10" text-anchor="middle">42.3601° N</text><text x="260" y="530" fill="#333" font-family="monospace" font-size="10" text-anchor="middle">71.0589° W</text><text x="220" y="600" fill="#333" font-family="Arial" font-size="12" text-anchor="middle">&quot;Coordenadas misteriosas y</text><text x="220" y="615" fill="#333" font-family="Arial" font-size="12" text-anchor="middle">una nota parcialmente quemada&quot;</text><rect width="340" height="250" x="410" y="380" fill="#f3e5f5" stroke="#333" stroke-width="3"/><rect width="300" height="80" x="430" y="420" fill="rgba(156,39,176,0.2)" stroke="#9c27b0" stroke-dasharray="8 4" stroke-width="3"/><text x="580" y="445" fill="#7b1fa2" font-family="Arial" font-size="14" font-weight="bold" text-anchor="middle">¡INVESTIGACIÓN INTERACTIVA!</text><text x="580" y="465" fill="#4a148c" font-family="Arial" font-size="12" text-anchor="middle">Haz clic para analizar las pistas</text><text x="580" y="485" fill="#4a148c" font-family="Arial" font-size="12" text-anchor="middle">y resolver el misterio</text><circle cx="460" cy="550" r="15" fill="#ff5722"/><text x="460" y="555" fill="#fff" font-family="Arial" font-size="8" text-anchor="middle">1</text><text x="460" y="580" fill="#333" font-family="Arial" font-size="8" text-anchor="middle">Nota quemada</text><circle cx="580" cy="550" r="15" fill="#ff5722"/><text x="580" y="555" fill="#fff" font-family="Arial" font-size="8" text-anchor="middle">2</text><text x="580" y="580" fill="#333" font-family="Arial" font-size="8" text-anchor="middle">Coordenadas</text><circle cx="700" cy="550" r="15" fill="#ff5722"/><text x="700" y="555" fill="#fff" font-family="Arial" font-size="8" text-anchor="middle">3</text><text x="700" y="580" fill="#333" font-family="Arial" font-size="8" text-anchor="middle">Dispositivo faltante</text><text x="580" y="610" fill="#333" font-family="Arial" font-size="12" text-anchor="middle">Conecta las pistas para resolver el caso</text><rect width="700" height="300" x="50" y="650" fill="#e8f5e8" stroke="#333" stroke-width="3"/><rect width="200" height="120" x="150" y="700" fill="#000"/><text x="250" y="730" fill="#0f0" font-family="monospace" font-size="12" text-anchor="middle">ARCHIVO ENCRIPTADO</text><text x="250" y="750" fill="#0f0" font-family="monospace" font-size="10" text-anchor="middle">Contacto: PHOENIX</text><text x="250" y="770" fill="#0f0" font-family="monospace" font-size="10" text-anchor="middle">Reunión: 23:00</text><text x="250" y="790" fill="#0f0" font-family="monospace" font-size="10" text-anchor="middle">Ubicación: [CIFRADO]</text><text x="250" y="810" fill="red" font-family="monospace" font-size="10" text-anchor="middle">ACCESO DENEGADO</text><rect width="80" height="100" x="450" y="700" fill="#e0e0e0" stroke="#333" stroke-width="2"/><circle cx="490" cy="730" r="20" fill="#ffdbcb"/><rect width="40" height="35" x="470" y="745" fill="#1976d2"/><text x="490" y="820" fill="#333" font-family="Arial" font-size="10" text-anchor="middle">Dr. Elena Voss</text><text x="400" y="880" fill="#333" font-family="Arial" font-size="14" font-weight="bold" text-anchor="middle">&quot;No fue un secuestro... Elena sabía algo y huyó&quot;</text><text x="400" y="910" fill="#666" font-family="Arial" font-size="12" text-anchor="middle">La verdad está en esas coordenadas y en la identidad de &quot;Phoenix&quot;</text><text x="400" y="1150" fill="#999" font-family="Arial" font-size="14" text-anchor="middle">Página 4</text></svg>