<svg xmlns="http://www.w3.org/2000/svg" viewBox="0 0 800 1200"><rect width="800" height="1200" fill="#f0f4f8"/><rect width="740" height="400" x="30" y="30" fill="#263238" stroke="#333" stroke-width="3"/><circle cx="100" cy="100" r="2" fill="#fff"/><circle cx="200" cy="150" r="1" fill="#fff"/><circle cx="300" cy="80" r="2" fill="#fff"/><circle cx="500" cy="120" r="1" fill="#fff"/><circle cx="600" cy="180" r="2" fill="#fff"/><circle cx="700" cy="100" r="1" fill="#fff"/><circle cx="150" cy="250" r="1" fill="#fff"/><circle cx="650" cy="300" r="2" fill="#fff"/><polygon fill="#37474f" stroke="#fff" stroke-width="2" points="350 200 450 200 470 250 460 300 440 320 360 320 340 300 330 250"/><rect width="60" height="40" x="370" y="220" fill="#0277bd"/><circle cx="390" cy="240" r="8" fill="#00bcd4"/><circle cx="410" cy="240" r="8" fill="#00bcd4"/><ellipse cx="500" cy="150" fill="#fff" stroke="#333" stroke-width="2" rx="80" ry="40"/><polygon fill="#fff" points="450 170 470 190 460 190"/><text x="500" y="155" fill="#333" font-family="Arial" font-size="12" text-anchor="middle">&quot;Los sistemas están</text><text x="500" y="170" fill="#333" font-family="Arial" font-size="12" text-anchor="middle">funcionando bien...&quot;</text><rect width="700" height="280" x="50" y="450" fill="#e1f5fe" stroke="#333" stroke-width="3"/><rect width="200" height="150" x="100" y="500" fill="#37474f" stroke="#333" stroke-width="2"/><circle cx="150" cy="530" r="15" fill="#4caf50"/><circle cx="200" cy="530" r="15" fill="#ff9800"/><circle cx="250" cy="530" r="15" fill="#f44336"/><rect width="160" height="60" x="120" y="570" fill="#000"/><text x="200" y="600" fill="#0f0" font-family="monospace" font-size="10" text-anchor="middle">SYSTEMS: ONLINE</text><text x="200" y="615" fill="#0f0" font-family="monospace" font-size="10" text-anchor="middle">FUEL: 85%</text><circle cx="500" cy="550" r="40" fill="#ffdbcb"/><rect width="60" height="80" x="470" y="580" fill="#1976d2"/><circle cx="485" cy="540" r="3" fill="#333"/><circle cx="515" cy="540" r="3" fill="#333"/><path fill="none" stroke="#333" stroke-width="2" d="M 490 560 Q 500 570 510 560"/><text x="400" y="700" fill="#333" font-family="Arial" font-size="14" text-anchor="middle">&quot;Todo parece estar en orden, pero debo ser cauteloso&quot;</text><rect width="700" height="300" x="50" y="750" fill="#fff8e1" stroke="#333" stroke-width="3"/><ellipse cx="400" cy="900" fill="#9c27b0" opacity=".7" rx="100" ry="80"/><ellipse cx="400" cy="900" fill="#e91e63" opacity=".5" rx="60" ry="50"/><ellipse cx="400" cy="900" fill="#fff" rx="30" ry="25"/><rect width="200" height="40" x="300" y="820" fill="rgba(255,215,0,0.3)" stroke="gold" stroke-dasharray="5 5" stroke-width="2"/><text x="400" y="845" fill="#ff6f00" font-family="Arial" font-size="12" font-weight="bold" text-anchor="middle">¡ELEMENTO INTERACTIVO!</text><text x="400" y="1020" fill="#333" font-family="Arial" font-size="14" text-anchor="middle">&quot;¿Qué es esa extraña anomalía? Debo investigar...&quot;</text><text x="400" y="1150" fill="#999" font-family="Arial" font-size="14" text-anchor="middle">Página 2</text></svg>