<svg xmlns="http://www.w3.org/2000/svg" viewBox="0 0 600 800"><defs><linearGradient id="mysteryGradient" x1="0%" x2="100%" y1="0%" y2="100%"><stop offset="0%" style="stop-color:#1a1a2e;stop-opacity:1"/><stop offset="50%" style="stop-color:#16213e;stop-opacity:1"/><stop offset="100%" style="stop-color:#0f3460;stop-opacity:1"/></linearGradient><radialGradient id="moonGlow" cx="50%" cy="50%" r="50%"><stop offset="0%" style="stop-color:#fafafa;stop-opacity:1"/><stop offset="70%" style="stop-color:#e0e0e0;stop-opacity:.8"/><stop offset="100%" style="stop-color:#bdbdbd;stop-opacity:0"/></radialGradient><radialGradient id="magicGlow" cx="50%" cy="50%" r="50%"><stop offset="0%" style="stop-color:#9c27b0;stop-opacity:1"/><stop offset="100%" style="stop-color:#9c27b0;stop-opacity:0"/></radialGradient></defs><rect width="600" height="800" fill="url(#mysteryGradient)"/><circle cx="150" cy="120" r="60" fill="url(#moonGlow)"/><circle cx="140" cy="110" r="8" fill="#bdbdbd" opacity=".7"/><circle cx="165" cy="125" r="5" fill="#bdbdbd" opacity=".7"/><circle cx="145" cy="140" r="4" fill="#bdbdbd" opacity=".7"/><circle cx="160" cy="105" r="3" fill="#bdbdbd" opacity=".7"/><polygon fill="#212121" points="0 500 150 300 300 450 450 250 600 400 600 800 0 800"/><polygon fill="#1a1a1a" points="100 500 250 350 400 480 550 320 600 450 600 800 0 800" opacity=".8"/><rect width="60" height="300" x="80" y="200" fill="#0d0d0d"/><polygon fill="#1a1a1a" points="80 200 110 180 140 200 140 500 80 500"/><rect width="8" height="12" x="95" y="250" fill="#ff5722"/><rect width="8" height="12" x="95" y="300" fill="#ff5722"/><rect width="8" height="12" x="95" y="350" fill="#ff5722"/><rect width="8" height="12" x="117" y="270" fill="#ff5722"/><rect width="8" height="12" x="117" y="320" fill="#ff5722"/><rect width="8" height="12" x="117" y="370" fill="#ff5722"/><rect width="120" height="150" x="450" y="350" fill="#263238"/><rect width="25" height="40" x="460" y="360" fill="#37474f"/><rect width="20" height="30" x="490" y="370" fill="#37474f"/><rect width="25" height="35" x="520" y="360" fill="#37474f"/><rect width="15" height="25" x="550" y="365" fill="#37474f"/><rect width="15" height="20" x="465" y="420" fill="#ffeb3b"/><rect width="15" height="20" x="495" y="415" fill="#ffeb3b"/><rect width="15" height="15" x="525" y="425" fill="#ffeb3b"/><g transform="translate(300, 400)"><ellipse cx="0" cy="40" fill="#000" opacity=".5" rx="25" ry="8"/><rect width="30" height="40" x="-15" y="0" fill="#37474f"/><circle cx="0" cy="-10" r="12" fill="#5d4037"/><ellipse cx="0" cy="-15" fill="#424242" rx="18" ry="5"/><rect width="24" height="8" x="-12" y="-20" fill="#424242"/><rect width="40" height="25" x="-20" y="35" fill="#455a64"/><circle cx="25" cy="10" r="8" fill="rgba(255,255,255,0.7)" stroke="#424242" stroke-width="2"/><line x1="31" x2="38" y1="16" y2="23" stroke="#424242" stroke-width="2"/></g><circle cx="400" cy="180" r="8" fill="url(#magicGlow)" opacity=".8"/><circle cx="380" cy="200" r="5" fill="#e91e63" opacity=".7"/><circle cx="420" cy="160" r="6" fill="#9c27b0" opacity=".6"/><circle cx="350" cy="220" r="4" fill="#673ab7" opacity=".8"/><circle cx="200" cy="300" r="3" fill="#ffc107" opacity=".7"/><circle cx="220" cy="280" r="2" fill="#ff9800" opacity=".6"/><circle cx="180" cy="320" r="2" fill="#ffeb3b" opacity=".8"/><text x="300" y="80" fill="#fff" stroke="#000" stroke-width="2" font-family="Arial" font-size="36" font-weight="bold" text-anchor="middle">MISTERIOS</text><text x="180" y="120" fill="#ff5722" stroke="#000" stroke-width="1" font-family="Arial" font-size="32" font-weight="bold" text-anchor="middle">&amp;</text><text x="420" y="120" fill="#9c27b0" stroke="#000" stroke-width="2" font-family="Arial" font-size="36" font-weight="bold" text-anchor="middle">FANTASÍA</text><text x="300" y="150" fill="#b0bec5" font-family="Arial" font-size="14" font-style="italic" text-anchor="middle">Donde la ciencia se encuentra con la magia</text><g transform="translate(300, 250)"><circle cx="0" cy="0" r="40" fill="none" stroke="#9c27b0" stroke-width="3" opacity=".8"/><circle cx="0" cy="0" r="25" fill="none" stroke="#e91e63" stroke-width="2" opacity=".6"/><polygon fill="#673ab7" points="0 -30 10 -10 30 0 10 10 0 30 -10 10 -30 0 -10 -10" opacity=".7"/><circle cx="0" cy="0" r="8" fill="#ffc107"/></g><rect width="500" height="100" x="50" y="650" fill="rgba(0,0,0,0.8)"/><text x="300" y="685" fill="#fff" font-family="Arial" font-size="22" font-weight="bold" text-anchor="middle">VOLUMEN 2</text><text x="200" y="710" fill="#ff7043" font-family="Arial" font-size="16" text-anchor="middle">Secretos del Laboratorio</text><text x="400" y="710" fill="#ab47bc" font-family="Arial" font-size="16" text-anchor="middle">La Torre Encantada</text><text x="300" y="735" fill="#78909c" font-family="Arial" font-size="12" text-anchor="middle">Por: Equipo WebComic</text><polygon fill="#9c27b0" points="10 10 40 10 10 40" opacity=".3"/><polygon fill="#ff5722" points="590 10 560 10 590 40" opacity=".3"/><polygon fill="#ff5722" points="10 790 40 790 10 760" opacity=".3"/><polygon fill="#9c27b0" points="590 790 560 790 590 760" opacity=".3"/><rect width="580" height="780" x="10" y="10" fill="none" stroke="#546e7a" stroke-width="4"/><rect width="570" height="770" x="15" y="15" fill="none" stroke="#78909c" stroke-width="2"/></svg>