<svg xmlns="http://www.w3.org/2000/svg" viewBox="0 0 600 800"><defs><linearGradient id="spaceGradient" x1="0%" x2="100%" y1="0%" y2="100%"><stop offset="0%" style="stop-color:#0d1421;stop-opacity:1"/><stop offset="50%" style="stop-color:#1a237e;stop-opacity:1"/><stop offset="100%" style="stop-color:#000051;stop-opacity:1"/></linearGradient><radialGradient id="starGlow" cx="50%" cy="50%" r="50%"><stop offset="0%" style="stop-color:#fff;stop-opacity:1"/><stop offset="100%" style="stop-color:#fff;stop-opacity:0"/></radialGradient></defs><rect width="600" height="800" fill="url(#spaceGradient)"/><circle cx="100" cy="80" r="2" fill="url(#starGlow)"/><circle cx="200" cy="120" r="1" fill="#fff"/><circle cx="350" cy="90" r="2" fill="url(#starGlow)"/><circle cx="480" cy="140" r="1" fill="#fff"/><circle cx="520" cy="70" r="1" fill="#fff"/><circle cx="80" cy="200" r="1" fill="#fff"/><circle cx="450" cy="250" r="2" fill="url(#starGlow)"/><circle cx="150" cy="300" r="1" fill="#fff"/><circle cx="550" cy="320" r="1" fill="#fff"/><circle cx="250" cy="400" r="1" fill="#fff"/><circle cx="400" cy="450" r="2" fill="url(#starGlow)"/><circle cx="50" cy="500" r="1" fill="#fff"/><circle cx="500" cy="550" r="1" fill="#fff"/><circle cx="150" cy="150" r="30" fill="#ff7043" opacity=".8"/><circle cx="140" cy="140" r="5" fill="#bf360c" opacity=".6"/><circle cx="160" cy="155" r="8" fill="#bf360c" opacity=".4"/><circle cx="450" cy="180" r="20" fill="#4fc3f7" opacity=".7"/><circle cx="445" cy="175" r="3" fill="#0277bd" opacity=".8"/><g transform="translate(300, 400)"><ellipse cx="0" cy="0" fill="#37474f" rx="80" ry="25"/><ellipse cx="0" cy="-5" fill="#546e7a" rx="70" ry="18"/><ellipse cx="0" cy="-8" fill="#78909c" rx="60" ry="12"/><rect width="60" height="8" x="-30" y="-15" fill="#0277bd"/><circle cx="-20" cy="-11" r="6" fill="#00bcd4"/><circle cx="0" cy="-11" r="6" fill="#00bcd4"/><circle cx="20" cy="-11" r="6" fill="#00bcd4"/><ellipse cx="-85" cy="0" fill="#ff5722" opacity=".9" rx="15" ry="8"/><ellipse cx="-90" cy="0" fill="#ff9800" opacity=".7" rx="20" ry="12"/><ellipse cx="-95" cy="0" fill="#ffc107" opacity=".5" rx="25" ry="16"/><polygon fill="#455a64" points="-40 -25 -60 -35 -50 -15 -35 -20"/><polygon fill="#455a64" points="40 -25 60 -35 50 -15 35 -20"/></g><g transform="translate(450, 250) scale(0.6)"><ellipse cx="0" cy="0" fill="#9c27b0" rx="60" ry="20"/><ellipse cx="0" cy="-3" fill="#e91e63" rx="45" ry="15"/><ellipse cx="0" cy="-5" fill="#f06292" rx="30" ry="10"/><circle cx="-20" cy="-8" r="5" fill="#fff" opacity=".8"/><circle cx="0" cy="-8" r="5" fill="#fff" opacity=".8"/><circle cx="20" cy="-8" r="5" fill="#fff" opacity=".8"/></g><line x1="300" x2="430" y1="375" y2="240" stroke="#0f0" stroke-width="3" opacity=".7"/><line x1="300" x2="440" y1="385" y2="250" stroke="#0f0" stroke-width="2" opacity=".5"/><text x="300" y="100" fill="#fff" stroke="#000" stroke-width="2" font-family="Arial" font-size="48" font-weight="bold" text-anchor="middle">AVENTURAS</text><text x="300" y="150" fill="#00bcd4" stroke="#000" stroke-width="2" font-family="Arial" font-size="48" font-weight="bold" text-anchor="middle">ESPACIALES</text><text x="300" y="190" fill="#b0bec5" font-family="Arial" font-size="16" font-style="italic" text-anchor="middle">Una odisea entre las estrellas</text><rect width="500" height="100" x="50" y="650" fill="rgba(0,0,0,0.7)"/><text x="300" y="690" fill="#fff" font-family="Arial" font-size="24" font-weight="bold" text-anchor="middle">VOLUMEN 1</text><text x="300" y="720" fill="#90caf9" font-family="Arial" font-size="18" text-anchor="middle">El Despertar del Explorador</text><text x="300" y="740" fill="#78909c" font-family="Arial" font-size="12" text-anchor="middle">Por: Equipo WebComic</text><rect width="580" height="780" x="10" y="10" fill="none" stroke="#546e7a" stroke-width="4"/><rect width="570" height="770" x="15" y="15" fill="none" stroke="#78909c" stroke-width="2"/></svg>