<svg xmlns="http://www.w3.org/2000/svg" viewBox="0 0 600 800"><defs><linearGradient id="fantasyGradient" x1="0%" x2="100%" y1="0%" y2="100%"><stop offset="0%" style="stop-color:#2e1065;stop-opacity:1"/><stop offset="50%" style="stop-color:#7c3aed;stop-opacity:1"/><stop offset="100%" style="stop-color:#a855f7;stop-opacity:1"/></linearGradient><radialGradient id="sunsetGlow" cx="50%" cy="30%" r="40%"><stop offset="0%" style="stop-color:#fbbf24;stop-opacity:1"/><stop offset="70%" style="stop-color:#f59e0b;stop-opacity:.8"/><stop offset="100%" style="stop-color:#d97706;stop-opacity:.3"/></radialGradient><filter id="glow"><feGaussianBlur result="coloredBlur" stdDeviation="3"/><feMerge><feMergeNode in="coloredBlur"/><feMergeNode in="SourceGraphic"/></feMerge></filter></defs><rect width="600" height="800" fill="url(#fantasyGradient)"/><ellipse cx="300" cy="200" fill="url(#sunsetGlow)" opacity=".6" rx="200" ry="100"/><polygon fill="#1f2937" points="0 400 100 200 200 350 300 150 400 300 500 100 600 250 600 800 0 800"/><polygon fill="#111827" points="50 450 150 250 250 380 350 200 450 330 550 150 600 280 600 800 0 800" opacity=".7"/><ellipse cx="150" cy="500" fill="#064e3b" rx="40" ry="80"/><ellipse cx="200" cy="520" fill="#065f46" rx="30" ry="60"/><ellipse cx="100" cy="530" fill="#064e3b" rx="35" ry="70"/><ellipse cx="300" cy="510" fill="#065f46" rx="45" ry="85"/><ellipse cx="350" cy="530" fill="#064e3b" rx="25" ry="50"/><ellipse cx="450" cy="520" fill="#065f46" rx="40" ry="75"/><ellipse cx="500" cy="540" fill="#064e3b" rx="30" ry="60"/><circle cx="120" cy="400" r="3" fill="#fbbf24" filter="url(#glow)"/><circle cx="280" cy="350" r="2" fill="#a78bfa" filter="url(#glow)"/><circle cx="450" cy="380" r="4" fill="#fb7185" filter="url(#glow)"/><circle cx="180" cy="320" r="2" fill="#34d399" filter="url(#glow)"/><circle cx="380" cy="330" r="3" fill="#60a5fa" filter="url(#glow)"/><circle cx="520" cy="360" r="2" fill="#fbbf24" filter="url(#glow)"/><g transform="translate(300, 450)"><ellipse cx="0" cy="80" fill="#000" opacity=".4" rx="35" ry="10"/><rect width="40" height="60" x="-20" y="20" fill="#1f2937"/><circle cx="0" cy="0" r="18" fill="#4b5563"/><path fill="#7c3aed" d="M -18 25 Q -35 40 -30 70 Q -25 85 -15 80 Q -20 60 -18 40"/><path fill="#7c3aed" d="M 18 25 Q 35 40 30 70 Q 25 85 15 80 Q 20 60 18 40"/><rect width="3" height="40" x="25" y="-10" fill="#d1d5db"/><rect width="7" height="8" x="23" y="-15" fill="#fbbf24"/></g><g transform="translate(450, 150) scale(0.8)"><path fill="#dc2626" d="M 0 0 Q -20 -10 -40 0 Q -30 10 -20 5 Q -10 8 0 5 Q 20 10 40 0 Q 30 -10 20 -5 Q 10 -8 0 0"/><polygon fill="#dc2626" points="-50 0 -60 -15 -45 -10 -40 -5"/><polygon fill="#dc2626" points="50 0 60 -15 45 -10 40 -5"/><circle cx="-15" cy="-3" r="3" fill="#fbbf24"/><circle cx="15" cy="-3" r="3" fill="#fbbf24"/></g><g transform="translate(100, 300) scale(0.6)"><rect width="60" height="100" x="0" y="50" fill="#374151"/><polygon fill="#4b5563" points="0 50 30 30 60 50 60 150 0 150"/><rect width="8" height="10" x="10" y="70" fill="#fbbf24"/><rect width="8" height="10" x="25" y="80" fill="#fbbf24"/><rect width="8" height="10" x="42" y="75" fill="#fbbf24"/><rect width="30" height="130" x="70" y="20" fill="#374151"/><polygon fill="#4b5563" points="70 20 85 10 100 20 100 150 70 150"/><rect width="6" height="8" x="80" y="40" fill="#fbbf24"/></g><text x="300" y="100" fill="#fbbf24" stroke="#7c3aed" stroke-width="2" filter="url(#glow)" font-family="serif" font-size="42" font-weight="bold" text-anchor="middle">LEYENDAS</text><text x="300" y="150" fill="#a855f7" stroke="#fbbf24" stroke-width="2" filter="url(#glow)" font-family="serif" font-size="42" font-weight="bold" text-anchor="middle">ÉPICAS</text><text x="300" y="180" fill="#e5e7eb" font-family="serif" font-size="16" font-style="italic" text-anchor="middle">Donde nacen las leyendas</text><g fill="none" stroke="#a78bfa" stroke-width="2" opacity=".7"><circle cx="50" cy="50" r="15"/><polygon points="45 45 50 35 55 45 50 50"/><circle cx="550" cy="50" r="15"/><polygon points="545 45 550 35 555 45 550 50"/><circle cx="50" cy="750" r="15"/><polygon points="45 745 50 735 55 745 50 750"/><circle cx="550" cy="750" r="15"/><polygon points="545 745 550 735 555 745 550 750"/></g><rect width="500" height="100" x="50" y="650" fill="rgba(0,0,0,0.7)"/><text x="300" y="690" fill="#fbbf24" font-family="serif" font-size="24" font-weight="bold" text-anchor="middle">EDICIÓN ESPECIAL</text><text x="300" y="715" fill="#a855f7" font-family="serif" font-size="18" text-anchor="middle">Aventuras Interactivas</text><text x="300" y="740" fill="#d1d5db" font-family="serif" font-size="12" text-anchor="middle">Creado por: Equipo WebComic</text><rect width="560" height="760" x="20" y="20" fill="none" stroke="#fbbf24" stroke-width="3"/><rect width="550" height="750" x="25" y="25" fill="none" stroke="#a855f7" stroke-width="2"/><polygon fill="#fbbf24" points="20 20 50 20 35 35"/><polygon fill="#fbbf24" points="580 20 550 20 565 35"/><polygon fill="#fbbf24" points="20 780 50 780 35 765"/><polygon fill="#fbbf24" points="580 780 550 780 565 765"/></svg>