<svg xmlns="http://www.w3.org/2000/svg" viewBox="0 0 800 1200"><rect width="800" height="1200" fill="#f5f5f5"/><text x="400" y="40" fill="#333" font-family="Arial" font-size="18" font-weight="bold" text-anchor="middle">El Encuentro</text><rect width="740" height="350" x="30" y="60" fill="#0d1421" stroke="#333" stroke-width="3"/><circle cx="80" cy="120" r="1" fill="#fff"/><circle cx="180" cy="180" r="2" fill="#fff"/><circle cx="280" cy="100" r="1" fill="#fff"/><circle cx="450" cy="150" r="2" fill="#fff"/><circle cx="580" cy="200" r="1" fill="#fff"/><circle cx="680" cy="120" r="2" fill="#fff"/><circle cx="120" cy="300" r="1" fill="#fff"/><circle cx="600" cy="350" r="1" fill="#fff"/><polygon fill="#1976d2" stroke="#fff" stroke-width="1" points="150 250 200 230 220 260 210 290 180 300 140 290 130 260"/><circle cx="170" cy="265" r="5" fill="#00bcd4"/><circle cx="185" cy="265" r="5" fill="#00bcd4"/><ellipse cx="600" cy="200" fill="#9c27b0" rx="80" ry="30"/><ellipse cx="600" cy="200" fill="#e91e63" rx="60" ry="20"/><ellipse cx="600" cy="200" fill="#f06292" rx="40" ry="15"/><circle cx="580" cy="195" r="8" fill="#fff"/><circle cx="600" cy="195" r="8" fill="#fff"/><circle cx="620" cy="195" r="8" fill="#fff"/><path fill="none" stroke="#0f0" stroke-dasharray="10 5" stroke-width="3" d="M 220 250 Q 400 150 580 190"/><path fill="none" stroke="#0f0" stroke-dasharray="8 4" stroke-width="2" d="M 220 270 Q 400 170 580 210"/><ellipse cx="300" cy="120" fill="#fff" stroke="#333" stroke-width="2" rx="100" ry="50"/><polygon fill="#fff" points="280 150 250 180 270 170"/><text x="300" y="110" fill="#333" font-family="Arial" font-size="11" text-anchor="middle">&quot;Señal desconocida</text><text x="300" y="125" fill="#333" font-family="Arial" font-size="11" text-anchor="middle">detectada. Intentando</text><text x="300" y="140" fill="#333" font-family="Arial" font-size="11" text-anchor="middle">comunicación...&quot;</text><rect width="340" height="300" x="50" y="430" fill="#e8eaf6" stroke="#333" stroke-width="3"/><circle cx="220" cy="530" r="50" fill="#ffdbcb"/><circle cx="205" cy="520" r="4" fill="#333"/><circle cx="235" cy="520" r="4" fill="#333"/><path fill="none" stroke="#333" stroke-width="2" d="M 210 545 Q 220 555 230 545"/><rect width="60" height="90" x="190" y="570" fill="#1976d2"/><ellipse cx="150" cy="450" fill="#fff" stroke="#333" stroke-width="2" rx="60" ry="30"/><circle cx="180" cy="480" r="5" fill="#fff" stroke="#333" stroke-width="1"/><circle cx="190" cy="490" r="8" fill="#fff" stroke="#333" stroke-width="1"/><text x="150" y="455" fill="#333" font-family="Arial" font-size="10" text-anchor="middle">&quot;¿Amigos o</text><text x="150" y="468" fill="#333" font-family="Arial" font-size="10" text-anchor="middle">enemigos?&quot;</text><text x="220" y="700" fill="#333" font-family="Arial" font-size="12" text-anchor="middle">La decisión es crucial...</text><rect width="340" height="300" x="410" y="430" fill="#fff3e0" stroke="#333" stroke-width="3"/><rect width="300" height="100" x="430" y="500" fill="rgba(255,215,0,0.2)" stroke="gold" stroke-dasharray="10 5" stroke-width="3"/><text x="580" y="530" fill="#ff6f00" font-family="Arial" font-size="14" font-weight="bold" text-anchor="middle">¡DECISIÓN INTERACTIVA!</text><text x="580" y="550" fill="#e65100" font-family="Arial" font-size="12" text-anchor="middle">Haz clic para elegir tu respuesta</text><text x="580" y="570" fill="#e65100" font-family="Arial" font-size="12" text-anchor="middle">al encuentro alienígena</text><rect width="80" height="30" x="440" y="620" fill="#4caf50" opacity=".7"/><text x="480" y="640" fill="#fff" font-family="Arial" font-size="10" text-anchor="middle">Comunicar</text><rect width="80" height="30" x="540" y="620" fill="#ff9800" opacity=".7"/><text x="580" y="640" fill="#fff" font-family="Arial" font-size="10" text-anchor="middle">Defenderse</text><rect width="80" height="30" x="640" y="620" fill="#2196f3" opacity=".7"/><text x="680" y="640" fill="#fff" font-family="Arial" font-size="10" text-anchor="middle">Retirarse</text><text x="580" y="700" fill="#333" font-family="Arial" font-size="12" text-anchor="middle">Tu elección determinará el futuro</text><rect width="700" height="200" x="50" y="750" fill="#f1f8e9" stroke="#333" stroke-width="3"/><text x="400" y="800" fill="#333" font-family="Arial" font-size="16" font-weight="bold" text-anchor="middle">Mensaje alienígena recibido:</text><text x="400" y="830" fill="#666" font-family="Arial" font-size="14" font-style="italic" text-anchor="middle">&quot;◊◊◊ Saludos, viajero del espacio ◊◊◊&quot;</text><text x="400" y="850" fill="#666" font-family="Arial" font-size="14" font-style="italic" text-anchor="middle">&quot;◊◊◊ Nuestras intenciones son pacíficas ◊◊◊&quot;</text><text x="400" y="890" fill="#333" font-family="Arial" font-size="12" text-anchor="middle">El traductor universal está funcionando...</text><text x="400" y="920" fill="#333" font-family="Arial" font-size="12" text-anchor="middle">¿Pero puedes confiar en estas palabras?</text><text x="400" y="1150" fill="#999" font-family="Arial" font-size="14" text-anchor="middle">Página 3</text></svg>